<?xml version="1.0" encoding="UTF-8"?>
<svg width="110px" height="112px" viewBox="0 0 110 112" version="1.1" xmlns="http://www.w3.org/2000/svg"
>
    <title>Organizations</title>
    <desc>Organizations for Craft CMS (by Flipbox)</desc>
    <defs></defs>
    <g id="Page-1" stroke="none" stroke-width="1" fill="none" fill-rule="evenodd">
        <g id="Organizatoin" transform="translate(-645.000000, -53.000000)" fill="#000000" fill-rule="nonzero">
            <g id="Mask" transform="translate(645.000000, 53.000000)">
                <path d="M99.5783466,87.0034692 L99.5783466,69.4262872 L57.316004,69.4262872 L57.316004,47.8075221 C69.3501576,46.6423982 78.7587252,36.5057974 78.7587252,24.1661205 C78.7587252,11.0446684 68.1215635,0.407506667 54.99988,0.407506667 C41.8784279,0.407506667 31.2412662,11.0446683 31.2412662,24.1661205 C31.2412662,36.505566 40.6498396,46.6423982 52.6832991,47.8075221 L52.6832991,69.4262872 L10.4211879,69.4262872 L10.4211879,87.0034692 L0.4434967,87.0034692 L0.4434967,111.592493 L25.0322808,111.592493 L25.0322808,87.0034692 L15.0538927,87.0034692 L15.0538927,74.0589979 L52.6832991,74.0589979 L52.6832991,87.0034692 L42.7055993,87.0034692 L42.7055993,111.592493 L67.2943921,111.592493 L67.2943921,87.0034692 L57.316004,87.0034692 L57.316004,74.0589979 L94.9456359,74.0589979 L94.9456359,87.0034692 L84.9677105,87.0034692 L84.9677105,111.592493 L109.556503,111.592493 L109.556503,87.0034692 L99.5783466,87.0034692 Z"
                      id="Shape"></path>
            </g>
        </g>
    </g>
</svg>