<?xml version="1.0" encoding="utf-8"?>
<!-- Generator: Adobe Illustrator 23.1.1, SVG Export Plug-In . SVG Version: 6.00 Build 0)  -->
<svg version="1.1" id="Layer_1" xmlns="http://www.w3.org/2000/svg" xmlns:xlink="http://www.w3.org/1999/xlink" x="0px" y="0px"
	 viewBox="40 40 280 280" style="enable-background:new 40 40 280 280;" xml:space="preserve">
<style type="text/css">
	.st0{fill:#FAA819;}
	.st1{fill:#FDB84C;}
	.st2{fill:#FFFFFF;}
</style>
<g>
	<rect x="215.82" y="201.86" class="st0" width="15.74" height="15.74"/>
	<rect x="129.23" y="201.86" class="st0" width="15.74" height="15.74"/>
	<rect x="172.52" y="201.86" class="st0" width="15.74" height="15.74"/>
	<path class="st0" d="M254.33,140.98c-2.04,0-3.98-1.08-5.1-2.91c-0.07-0.12-0.17-0.21-0.23-0.33c-1.52-2.94-0.37-6.56,2.57-8.08
		l30.1-15.57l6.8-3.52L180.4,48.16l-108.08,62.4l6.8,3.52l30.1,15.57c2.94,1.52,4.09,5.14,2.57,8.08c-0.06,0.12-0.16,0.21-0.23,0.33
		c-1.12,1.84-3.06,2.91-5.1,2.91c-0.93,0-1.87-0.22-2.75-0.67l-37.48-19.39V245.9l108.17,62.45v-54.88c0-3.31,2.69-6,6-6
		c3.31,0,6,2.69,6,6v54.88l108.17-62.45V120.91l-37.48,19.39C256.2,140.76,255.26,140.98,254.33,140.98z M192.77,154.06h-24.74
		c-2.48,0-4.5-2.02-4.5-4.5v-24.74c0-2.48,2.02-4.5,4.5-4.5h24.74c2.48,0,4.5,2.02,4.5,4.5v24.74
		C197.27,152.05,195.25,154.06,192.77,154.06z M175.9,169.91v-10.05c0-2.48,2.02-4.5,4.5-4.5c2.48,0,4.5,2.02,4.5,4.5v10.05h4.17
		h23.96c2.48,0,4.5,2.02,4.5,4.5v8.19c0,2.48-2.02,4.5-4.5,4.5s-4.5-2.02-4.5-4.5v-3.69H184.9v3.69c0,2.48-2.02,4.5-4.5,4.5
		c-2.48,0-4.5-2.02-4.5-4.5v-3.69h-27.12v3.69c0,2.48-2.02,4.5-4.5,4.5s-4.5-2.02-4.5-4.5v-8.19c0-2.48,2.02-4.5,4.5-4.5h27.45
		H175.9z M153.97,222.1c0,2.48-2.02,4.5-4.5,4.5h-24.74c-2.48,0-4.5-2.02-4.5-4.5v-24.74c0-2.48,2.02-4.5,4.5-4.5h24.74
		c2.48,0,4.5,2.02,4.5,4.5V222.1z M197.27,222.1c0,2.48-2.02,4.5-4.5,4.5h-24.74c-2.48,0-4.5-2.02-4.5-4.5v-24.74
		c0-2.48,2.02-4.5,4.5-4.5h24.74c2.48,0,4.5,2.02,4.5,4.5V222.1z M240.56,222.1c0,2.48-2.02,4.5-4.5,4.5h-24.74
		c-2.48,0-4.5-2.02-4.5-4.5v-24.74c0-2.48,2.02-4.5,4.5-4.5h24.74c2.48,0,4.5,2.02,4.5,4.5V222.1z"/>
	<rect x="172.52" y="129.32" class="st0" width="15.74" height="15.74"/>
	<path class="st1" d="M180.4,247.47c-3.31,0-6,2.69-6,6v54.88l6,3.46l6-3.46v-54.88C186.4,250.16,183.71,247.47,180.4,247.47z"/>
	<path class="st1" d="M106.46,140.98c2.04,0,3.98-1.08,5.1-2.91c0.07-0.12,0.17-0.21,0.23-0.33c1.52-2.94,0.37-6.56-2.57-8.08
		l-30.1-15.57l-6.8-3.52l-6.09,3.52v6.84l37.48,19.39C104.59,140.76,105.53,140.98,106.46,140.98z"/>
	<path class="st1" d="M288.47,110.56l-6.8,3.52l-30.1,15.57c-2.94,1.52-4.09,5.14-2.57,8.08c0.06,0.12,0.16,0.21,0.23,0.33
		c1.11,1.84,3.06,2.91,5.1,2.91c0.93,0,1.87-0.22,2.75-0.67l37.48-19.39v-6.84L288.47,110.56z"/>
	<path class="st2" d="M192.77,192.86h-24.74c-2.48,0-4.5,2.02-4.5,4.5v24.74c0,2.48,2.02,4.5,4.5,4.5h24.74c2.48,0,4.5-2.02,4.5-4.5
		v-24.74C197.27,194.88,195.25,192.86,192.77,192.86z M188.27,217.6h-15.74v-15.74h15.74V217.6z"/>
	<path class="st2" d="M149.47,192.86h-24.74c-2.48,0-4.5,2.02-4.5,4.5v24.74c0,2.48,2.02,4.5,4.5,4.5h24.74c2.48,0,4.5-2.02,4.5-4.5
		v-24.74C153.97,194.88,151.96,192.86,149.47,192.86z M144.97,217.6h-15.74v-15.74h15.74V217.6z"/>
	<path class="st2" d="M236.06,192.86h-24.74c-2.48,0-4.5,2.02-4.5,4.5v24.74c0,2.48,2.02,4.5,4.5,4.5h24.74c2.48,0,4.5-2.02,4.5-4.5
		v-24.74C240.56,194.88,238.54,192.86,236.06,192.86z M231.56,217.6h-15.74v-15.74h15.74V217.6z"/>
	<path class="st2" d="M197.27,124.83c0-2.48-2.02-4.5-4.5-4.5h-24.74c-2.48,0-4.5,2.02-4.5,4.5v24.74c0,2.48,2.02,4.5,4.5,4.5h24.74
		c2.48,0,4.5-2.02,4.5-4.5V124.83z M188.27,145.06h-15.74v-15.74h15.74V145.06z"/>
	<path class="st2" d="M139.78,174.4v8.19c0,2.48,2.02,4.5,4.5,4.5s4.5-2.02,4.5-4.5v-3.69h27.12v3.69c0,2.48,2.02,4.5,4.5,4.5
		c2.48,0,4.5-2.02,4.5-4.5v-3.69h23.62v3.69c0,2.48,2.02,4.5,4.5,4.5s4.5-2.02,4.5-4.5v-8.19c0-2.48-2.02-4.5-4.5-4.5h-23.96h-4.17
		v-10.05c0-2.48-2.02-4.5-4.5-4.5c-2.48,0-4.5,2.02-4.5,4.5v10.05h-4.17h-27.45C141.79,169.91,139.78,171.92,139.78,174.4z"/>
</g>
</svg>
