<?xml version="1.0" encoding="utf-8"?>
<!-- Generator: Adobe Illustrator 23.1.1, SVG Export Plug-In . SVG Version: 6.00 Build 0)  -->
<svg version="1.1" id="Layer_1" xmlns="http://www.w3.org/2000/svg" xmlns:xlink="http://www.w3.org/1999/xlink" x="0px" y="0px"
	 viewBox="93 93 174 174" style="enable-background:new 93 93 174 174;" xml:space="preserve">
<style type="text/css">
	.st0{fill:#FAA819;}
</style>
<g>
	<path class="st0" d="M199.33,211.1h-38.66c-3.45,0-6.25,2.8-6.25,6.25v38.66c0,3.45,2.8,6.25,6.25,6.25h38.66
		c3.45,0,6.25-2.8,6.25-6.25v-38.66C205.58,213.9,202.78,211.1,199.33,211.1z M193.08,249.76h-26.16V223.6h26.16V249.76z"/>
	<path class="st0" d="M137.93,211.1H99.27c-3.45,0-6.25,2.8-6.25,6.25v38.66c0,3.45,2.8,6.25,6.25,6.25h38.66
		c3.45,0,6.25-2.8,6.25-6.25v-38.66C144.18,213.9,141.38,211.1,137.93,211.1z M131.68,249.76h-26.16V223.6h26.16V249.76z"/>
	<path class="st0" d="M260.73,211.1h-38.66c-3.45,0-6.25,2.8-6.25,6.25v38.66c0,3.45,2.8,6.25,6.25,6.25h38.66
		c3.45,0,6.25-2.8,6.25-6.25v-38.66C266.98,213.9,264.19,211.1,260.73,211.1z M254.48,249.76h-26.16V223.6h26.16V249.76z"/>
	<path class="st0" d="M160.67,148.9h38.66c3.45,0,6.25-2.8,6.25-6.25v-38.66c0-3.45-2.8-6.25-6.25-6.25h-38.66
		c-3.45,0-6.25,2.8-6.25,6.25v38.66C154.42,146.1,157.22,148.9,160.67,148.9z M166.92,110.24h26.16v26.16h-26.16V110.24z"/>
	<path class="st0" d="M123.56,200.52c3.45,0,6.25-2.8,6.25-6.25v-6.55h43.94v6.55c0,3.45,2.8,6.25,6.25,6.25s6.25-2.8,6.25-6.25
		v-6.55h38.48v6.55c0,3.45,2.8,6.25,6.25,6.25s6.25-2.8,6.25-6.25v-12.8c0-3.45-2.8-6.25-6.25-6.25h-44.73v-16.49
		c0-3.45-2.8-6.25-6.25-6.25s-6.25,2.8-6.25,6.25v16.49h-50.19c-3.45,0-6.25,2.8-6.25,6.25v12.8
		C117.31,197.72,120.11,200.52,123.56,200.52z"/>
</g>
</svg>
