<?xml version="1.0" encoding="UTF-8"?>
<svg width="200px" height="230px" viewBox="0 0 200 230" version="1.1" xmlns="http://www.w3.org/2000/svg"
>
    <title>Organizations</title>
    <desc>Organizations for Craft CMS (by Flipbox)</desc>
    <defs>
        <linearGradient x1="0%" y1="0%" x2="50%" y2="100%" id="linearGradient-1">
            <stop stop-color="#F0461D" offset="0%"></stop>
            <stop stop-color="#FF2078" offset="100%"></stop>
        </linearGradient>
    </defs>
    <g id="Page-1" stroke="none" stroke-width="1" fill="none" fill-rule="evenodd">
        <g id="Organizatoin" fill-rule="nonzero">
            <g id="Icon">
                <polygon id="Polygon" fill="url(#linearGradient-1)"
                         points="100 -6.61623534e-15 200 57.5 200 172.5 100 230 -5.689893e-16 172.5 -5.689893e-16 57.5"></polygon>
                <path d="M144.578347,140.003469 L144.578347,122.426287 L102.316004,122.426287 L102.316004,100.807522 C114.350158,99.6423982 123.758725,89.5057974 123.758725,77.1661205 C123.758725,64.0446684 113.121564,53.4075067 99.99988,53.4075067 C86.8784279,53.4075067 76.2412662,64.0446683 76.2412662,77.1661205 C76.2412662,89.505566 85.6498396,99.6423982 97.6832991,100.807522 L97.6832991,122.426287 L55.4211879,122.426287 L55.4211879,140.003469 L45.4434967,140.003469 L45.4434967,164.592493 L70.0322808,164.592493 L70.0322808,140.003469 L60.0538927,140.003469 L60.0538927,127.058998 L97.6832991,127.058998 L97.6832991,140.003469 L87.7055993,140.003469 L87.7055993,164.592493 L112.294392,164.592493 L112.294392,140.003469 L102.316004,140.003469 L102.316004,127.058998 L139.945636,127.058998 L139.945636,140.003469 L129.96771,140.003469 L129.96771,164.592493 L154.556503,164.592493 L154.556503,140.003469 L144.578347,140.003469 Z"
                      id="Shape" fill="#FFFFFF"></path>
            </g>
        </g>
    </g>
</svg>